<mxfile host="app.diagrams.net" modified="2023-09-09T12:42:44.085Z" agent="Mozilla/5.0 (Windows NT 10.0; Win64; x64) AppleWebKit/537.36 (KHTML, like Gecko) Chrome/116.0.0.0 Safari/537.36" version="21.7.4" etag="6Y9RBxk0mPABcpVf-8eY" type="github">
  <diagram name="第 1 页" id="La3xsrKh0Fvg7SyX4pn5">
    <mxGraphModel>
      <root>
        <mxCell id="0" />
        <mxCell id="1" parent="0" />
      </root>
    </mxGraphModel>
  </diagram>
</mxfile>
